<svg xmlns="http://www.w3.org/2000/svg" viewBox="0 0 440 440"><rect width="440" height="440" rx="79" fill="#14211D"/><g transform="translate(-322.0,-273.0)"><defs><mask id="porta"><rect x="0" y="0" width="1080" height="1080" fill="white"/><path d="M506,632 L506,545 A37,37 0 0 1 580,545 L580,632 Z" fill="black"/></mask></defs><rect x="490" y="377" width="102" height="78" fill="#E8B84B"/><g mask="url(#porta)" fill="#F5EFE3"><g transform="translate(406.7,630)"><path d="M204.68 -154.37Q245.53 -133.3 245.53 -84.28Q245.53 -42.57 217.15 -21.285Q188.77 0.0 142.76 0.0H31.39Q29.24 0.0 27.735 -1.505Q26.23 -3.01 26.23 -5.16V-295.84Q26.23 -297.99 27.735 -299.495Q29.24 -301.0 31.39 -301.0H139.32Q241.23 -301.0 241.23 -218.44Q241.23 -175.44 204.68 -156.95Q202.1 -155.66 204.68 -154.37ZM86.86 -246.82V-179.74Q86.86 -177.59 89.01 -177.59H139.32Q159.53 -177.59 170.70999999999998 -187.05Q181.89 -196.51 181.89 -212.85Q181.89 -229.62 170.70999999999998 -239.29500000000002Q159.53 -248.97 139.32 -248.97H89.01Q86.86 -248.97 86.86 -246.82ZM184.9 -90.3Q184.9 -107.92999999999999 173.72 -118.035Q162.54 -128.14 142.32999999999998 -128.14H89.01Q86.86 -128.14 86.86 -125.99V-54.61Q86.86 -52.46 89.01 -52.46H142.76Q162.54 -52.46 173.72 -62.565Q184.9 -72.67 184.9 -90.3Z"/></g><rect x="490" y="498" width="105" height="83"/><rect x="399" y="647" width="286" height="10" rx="5"/></g></g></svg>